Coordinates
version=1
nRows=17
nColumns=36
inDegrees=yes

Units are S.I. units (second, meters, Newtons, ...)
If the header above contains a line with 'inDegrees', this indicates whether rotational values are in degrees (yes) or radians (no).

endheader
time	pelvis_tilt	pelvis_list	pelvis_rotation	pelvis_tx	pelvis_ty	pelvis_tz	hip_flexion_r	hip_adduction_r	hip_rotation_r	knee_angle_r	knee_angle_r_beta	ankle_angle_r	subtalar_angle_r	mtp_angle_r	hip_flexion_l	hip_adduction_l	hip_rotation_l	knee_angle_l	knee_angle_l_beta	ankle_angle_l	subtalar_angle_l	mtp_angle_l	lumbar_extension	lumbar_bending	lumbar_rotation	arm_flex_r	arm_add_r	arm_rot_r	elbow_flex_r	pro_sup_r	arm_flex_l	arm_add_l	arm_rot_l	elbow_flex_l	pro_sup_l
      6.30000000	    -24.03372650	     -4.47244237	     -6.19829047	      1.36254902	      0.76047966	      0.00388391	     69.12623572	     13.50572594	     -7.70162288	     76.19622072	      1.32987493	     48.58973728	      5.53353726	     -7.49999987	     92.89117606	    -17.14196045	     11.93482694	     63.52382977	      1.10869998	     19.15384191	      6.84343543	     -7.49999987	    -24.72693311	      9.49507606	     15.42455149	     63.44300530	    -16.37651623	     76.40824356	    120.79458573	     81.15680650	     58.35954715	     -3.02416196	     71.24178676	    111.26926210	    105.88213057
      6.31666670	    -24.07891362	     -4.48991422	     -6.41042165	      1.36746517	      0.75898655	      0.00651000	     69.32668339	     13.63868898	     -7.81159558	     76.62436708	      1.33734749	     48.73708512	      5.64830947	     -7.49999987	     92.93551118	    -17.42514529	     12.30935736	     63.65731254	      1.11102970	     19.34633008	      6.66874055	     -7.49999987	    -25.15921969	      9.48673859	     15.62494965	     62.86929109	    -16.34149774	     76.38971167	    120.33215236	     81.15562726	     57.91976034	     -3.02729086	     71.09166062	    111.16550360	    105.89071007
      6.33333330	    -24.42509954	     -4.70008620	     -6.79681630	      1.36719192	      0.75289338	      0.00671678	     69.87060673	     14.04950393	     -8.10337562	     77.03879715	      1.34458066	     48.86796868	      5.74160758	     -7.49999987	     93.38907372	    -17.90210317	     12.96429179	     63.73498875	      1.11238540	     19.62644575	      6.78207313	     -7.49999987	    -24.65044628	      9.86372708	     15.80527568	     61.94451118	    -15.99124982	     76.77548197	    119.54753548	     80.90273172	     56.72500660	     -3.16637883	     70.11635277	    111.38244958	    106.50197354
      6.35000000	    -24.51566991	     -4.68689455	     -6.94158057	      1.37128917	      0.75382749	      0.00362040	     69.79140307	     14.05281681	     -8.10967505	     77.15816193	      1.34666397	     48.95428142	      5.69553005	     -7.49999987	     93.16756107	    -18.05947470	     13.33412105	     63.45657451	      1.10752616	     20.00386449	      6.65635741	     -7.49999987	    -24.79604897	     10.04106078	     15.71315507	     61.13531931	    -16.03414120	     77.23740894	    119.62575492	     80.92459591	     56.18421982	     -3.40897306	     70.46993412	    111.27748225	    106.51839622
      6.36666670	    -24.70650135	     -4.72911327	     -7.03270205	      1.36660649	      0.75050831	      0.00725283	     69.90719751	     14.16798075	     -8.21556854	     77.14251504	      1.34639088	     48.98141139	      5.58631586	     -7.49999987	     93.15212565	    -18.28295425	     13.72036231	     63.19389104	      1.10294147	     20.06360485	      6.47146394	     -7.49999987	    -24.78608888	     10.10065158	     15.81360182	     61.33049662	    -15.95060024	     76.94769238	    119.57448930	     80.91025854	     55.81172247	     -3.85626937	     70.82321494	    111.02784643	    106.52640323
      6.38333330	    -24.95717150	     -4.69368532	     -7.15614954	      1.36126875	      0.74933977	      0.00518777	     70.31610849	     14.16639080	     -8.33322499	     77.29514417	      1.34905476	     48.98949306	      5.51202732	     -7.49999987	     93.39949815	    -18.44909995	     13.97923376	     63.14636604	      1.10211200	     19.92294502	      6.29713657	     -7.49999987	    -24.87318569	     10.17567646	     15.81414483	     62.06781349	    -15.91139865	     76.51846101	    119.58348730	     80.89631895	     55.96299369	     -3.99002805	     70.94749840	    110.89343333	    106.51976977
      6.40000000	    -25.38981040	     -4.75288725	     -7.28047060	      1.36154017	      0.74834644	      0.00528030	     70.81979724	     14.21548797	     -8.51669107	     77.24853826	      1.34824133	     48.96775869	      5.53142182	     -7.49999987	     93.86769567	    -18.47982205	     14.37742945	     63.09364535	      1.10119185	     19.51855250	      5.85208852	     -7.49999987	    -24.52877328	     10.43458196	     15.93735900	     62.30682115	    -15.68922320	     76.51737358	    119.62389131	     80.64695143	     55.87209160	     -3.80971029	     70.95018989	    110.76136260	    105.65802273
      6.41666670	    -25.53595001	     -4.64321963	     -7.36312023	      1.36610223	      0.75129745	      0.00184125	     70.59794144	     14.26011403	     -8.32156043	     76.81807691	      1.34072837	     48.99195683	      5.45914120	     -7.49999987	     93.57695408	    -18.48606338	     14.33408409	     62.86018543	      1.09711720	     19.48782466	      5.77605043	     -7.49999987	    -24.61990473	     10.56426315	     15.80802920	     61.95657308	    -15.78298035	     76.80552081	    119.57953797	     80.67494856	     55.22008581	     -3.54491075	     71.20498427	    110.76433362	    105.67649802
      6.43333330	    -25.46439860	     -4.46327874	     -7.42197254	      1.36603010	      0.74929672	      0.00248095	     70.28116046	     14.22202292	     -8.02850051	     76.59211409	      1.33678457	     48.95944413	      5.23574642	     -7.49999987	     93.16365335	    -18.49488899	     14.15173287	     62.83414239	      1.09666267	     19.55312211	      5.65766254	     -7.49999987	    -24.56850561	     10.60779638	     15.83647645	     62.42897276	    -15.70518381	     77.41084707	    120.16576749	     81.50656384	     55.10098324	     -3.13381366	     70.12103517	    111.32708657	    106.13681410
      6.45000000	    -25.35366693	     -4.36274492	     -7.32331263	      1.36597174	      0.74963131	      0.00234633	     69.88991351	     14.10680846	     -7.82944361	     76.31455542	      1.33194026	     48.93932826	      5.01689115	     -7.49999987	     92.75597467	    -18.37180107	     14.06582730	     62.80491979	      1.09615264	     19.63903800	      5.47349757	     -7.49999987	    -24.53974593	     10.72372169	     15.60619916	     62.48423587	    -15.75743327	     77.68503673	    120.20661873	     81.79619110	     55.07529837	     -2.99648366	     69.75876504	    111.95180094	    106.69807755
      6.46666670	    -25.29063738	     -4.16254452	     -7.28706041	      1.36629561	      0.75202645	      0.00227579	     69.58252902	     14.05611100	     -7.56012490	     75.96823610	      1.32589585	     48.91428278	      4.90560335	     -7.49999987	     92.32147292	    -18.28130746	     13.79710227	     62.68368889	      1.09403676	     19.59620160	      5.25977946	     -7.49999987	    -24.43095561	     10.70859760	     15.50882880	     62.51316444	    -15.74534687	     77.73832298	    120.11192941	     81.80577989	     54.85206519	     -2.69535840	     69.06342963	    112.23632020	    106.95553667
      6.48333330	    -25.18923592	     -4.03262208	     -7.25755205	      1.36638026	      0.75229503	      0.00214276	     69.36863762	     13.99409313	     -7.40652467	     75.76467812	      1.32234309	     48.89320448	      4.84262419	     -7.49999987	     92.00952194	    -18.19042099	     13.65297590	     62.70018327	      1.09432464	     19.47319024	      5.07047417	     -7.49999987	    -24.20973438	     10.69798848	     15.43969152	     62.35303519	    -15.77896553	     77.43530069	    120.00222802	     81.96136589	     54.78412836	     -2.39551671	     68.90843326	    112.06371756	    107.23185280
      6.50000000	    -25.04586372	     -3.86775563	     -7.10803295	      1.36637339	      0.75541477	      0.00256956	     68.91629950	     13.79509815	     -7.18057174	     75.39919742	      1.31596425	     48.87088523	      4.78459257	     -7.49999987	     91.49500549	    -18.01413070	     13.42047921	     62.50013196	      1.09083309	     19.42781225	      4.92731830	     -7.49999987	    -24.19149172	     10.64004571	     15.22529400	     62.29111524	    -15.87598636	     76.84658504	    119.78871864	     82.34526538	     54.73164753	     -2.18031123	     69.17291394	    112.16939603	    107.73007658
      6.51666670	    -24.81043953	     -3.71445891	     -6.97005992	      1.36649953	      0.75831161	      0.00211871	     68.37447366	     13.54640003	     -7.01664154	     75.02215911	      1.30938369	     48.82765053	      4.76073258	     -7.49999987	     90.87821570	    -17.91316818	     13.08500145	     62.21585396	      1.08587150	     19.31859029	      4.86320646	     -7.49999987	    -24.35099829	     10.61573906	     15.03228185	     62.54968254	    -15.42172101	     76.62745265	    120.03386507	     82.81689062	     54.35725992	     -2.42604299	     69.38582656	    112.68269801	    108.07533385
      6.53333330	    -24.65449497	     -3.75264267	     -6.90752894	      1.37204742	      0.76220773	      0.00460419	     67.66121035	     13.59081375	     -6.88504702	     74.40701195	      1.29864735	     48.81518349	      4.73943986	     -7.49999987	     90.31843138	    -17.93904165	     13.06865300	     61.91206170	      1.08056932	     19.18823937	      4.85948608	     -7.49999987	    -24.13443890	     10.64182538	     14.85352471	     61.44222089	    -14.57211894	     76.87159172	    120.72632620	     82.86327832	     53.24409313	     -2.87186231	     70.52757373	    113.23906192	    108.10260185
      6.55000000	    -24.43095900	     -3.56397564	     -6.75791355	      1.36692688	      0.76482920	      0.00260500	     67.15735015	     13.34190973	     -6.72275601	     74.05305818	      1.29246969	     48.73928268	      4.87860756	     -7.49999987	     89.77590896	    -17.88244893	     12.63110596	     61.49046445	      1.07321106	     19.01277201	      4.80562681	     -7.49999987	    -24.16636396	     10.55949258	     14.40535166	     61.59435192	    -14.44813519	     76.44784236	    121.39704542	     82.94071981	     53.89993398	     -3.07203997	     70.66674511	    114.10930792	    108.03660197
      6.56666670	    -24.11629780	     -3.29419266	     -6.62696498	      1.36723369	      0.77048331	      0.00277621	     66.52125465	     13.00858089	     -6.49925732	     73.56180520	      1.28389570	     48.61538949	      5.04160087	     -7.49999987	     89.00015294	    -17.76812270	     12.14311535	     60.90914652	      1.06306515	     18.84820705	      4.82080797	     -7.49999987	    -24.14321432	     10.41813765	     14.12966611	     61.58184736	    -14.45783007	     76.57070808	    120.81608981	     80.81515523	     54.39655600	     -3.30244735	     71.07000363	    114.00477190	    101.88242971
